) (`-.                           (` .-') /`           ) (`-.
       ( OO ).                          `.( OO ),'            ( OO ).
      (_/.  _)-.-'),-----. ,--.     ,--./  .--.  .-'),-----.(_/.  _)-.
         `.'  ( OO'  .-.  '|  |.-') |      |  | ( OO'  .-.  '  `.'  /
             /Y   |  | |  ||  | OO )|  |   |  |,/   |  | |  |      /
             _) |  ||  ||  |`-' ||  |.'.|  |_)_) |  ||  |      |
        .'    _) |  | |  (|  '---.'|         |    |  | |  | .'    _)
       /  .'.    `'  '-'  '|      | |   ,'.   |    `'  '-'  '/  .'.  
      '--'   '--'   `-----' `------' '--'   '--'      `-----''--'   '--'


      ßßßßßßßßßßßßßßßßßßßßßßßßßßßßßßßßßßßßßßßßßßßßßßßßßßßßßßßßßßßßßßßßßßßßßß

              Û°°°°°°°°°°°°°°°°°°°°°°°°°°°°°°°°°°°°°°°°°Û
             ÛÛ Resident Evil Apocalypse[2009]DvDrip-LW ÛÛ
              Û°°°°°°°°°°°°°°°°°°°°°°°°°°°°°°°°°°°°°°°°°Û

File Name    : Resident Evil Apocalypse[2009]DvDrip-LW
Type         : Movie
Format       : AVI
File Size    : 799 MB
Duration     : 01:33:48
Language     : English
Source       : DvD
Subtitles    : None
Genre        : Action | Horror | Sci-Fi | Thriller
IMDB Link    : http://www.imdb.com/title/tt0318627/
IMDB Rating  : 5.8/10
IMDB Votes   : 45,072 Votes
     ÜÜÜÜÜÜÜÜÜÜÜÜÜÜÜÜÜÜÜÜÜÜÜÜÜÜÜÜÜÜÜÜÜÜÜÜÜÜÜÜÜÜÜÜÜÜÜÜÜÜÜÜÜÜÜÜÜÜÜÜÜÜÜÜÜÜÜÜÜÜ
 
                        Û°°°°°°°°°°°°°°°°°°°°°°°°Û
                       ÛÛ       Video Info       ÛÛ
                        Û°°°°°°°°°°°°°°°°°°°°°°°°Û

Format                           : MPEG-4 Visual
Format profile                   : Streaming Video@L1
Format settings, BVOP            : Yes
Format settings, QPel            : No
Format settings, GMC             : No warppoints
Format settings, Matrix          : Default (H.263)
Codec ID                         : DX50
Codec ID/Hint                    : DivX 5
Duration                         : 1h 33mn
Bit rate                         : 926 Kbps
Width                            : 712 pixels
Height                           : 296 pixels
Display aspect ratio             : 2.405
Frame rate                       : 23.976 fps
Resolution                       : 24 bits
Colorimetry                      : 4:2:0
Scan type                        : Progressive
Bits/(Pixel*Frame)               : 0.183
Stream size                      : 622 MiB (78%)
Writing library                  : XviD 1.1.0
     ÜÜÜÜÜÜÜÜÜÜÜÜÜÜÜÜÜÜÜÜÜÜÜÜÜÜÜÜÜÜÜÜÜÜÜÜÜÜÜÜÜÜÜÜÜÜÜÜÜÜÜÜÜÜÜÜÜÜÜÜÜÜÜÜÜÜÜÜÜÜ

                         Û°°°°°°°°°°°°°°°°°°°°°°°°Û
                        ÛÛ      Sound Info        ÛÛ
                         Û°°°°°°°°°°°°°°°°°°°°°°°°Û

Format                           : AC-3
Format/Info                      : Audio Coding 3
Codec ID                         : 2000
Duration                         : 1h 33mn
Bit rate mode                    : Constant
Bit rate                         : 256 Kbps
Channel(s)                       : 6 channels
Channel positions                : Front: L C R, Surround: L R, LFE
Sampling rate                    : 48.0 KHz
Stream size                      : 172 MiB (21%)
Alignment                        : Split accross interleaves
Interleave, duration             : 42 ms (1.00 video frame)
Interleave, preload duration     : 500 ms
    ÜÜÜÜÜÜÜÜÜÜÜÜÜÜÜÜÜÜÜÜÜÜÜÜÜÜÜÜÜÜÜÜÜÜÜÜÜÜÜÜÜÜÜÜÜÜÜÜÜÜÜÜÜÜÜÜÜÜÜÜÜÜÜÜÜÜÜÜÜÜ

                          Û°°°°°°°°°°°°°°°°°°°°°°°°Û
                         ÛÛ          Plot          ÛÛ
                          Û°°°°°°°°°°°°°°°°°°°°°°°°Û

Something evil's lurking in Raccoon City, and the 
fearless Alice (Milla Jovovich, reprising her role 
from the original film), is one of only a few 
willing to put her life on the line to investigate 
the malevolent force. A virus is attacking the area's 
denizens, turning them into the undead. With the help 
of her colleague, Jill (Sienna Guillory), Alice sets 
out to uncover the truth, even as she fends off her 
biggest enemy, Nemesis (Mabius).

Starring: Milla Jovovich, Sienna Guillory

Director: Alexander Witt
    ÜÜÜÜÜÜÜÜÜÜÜÜÜÜÜÜÜÜÜÜÜÜÜÜÜÜÜÜÜÜÜÜÜÜÜÜÜÜÜÜÜÜÜÜÜÜÜÜÜÜÜÜÜÜÜÜÜÜÜÜÜÜÜÜÜÜÜÜÜÜ

ScreenShots 
http://imgshack.info/images/2b8wpvbeyd0x5iyu2zvq.png 
http://imgshack.info/images/3u1g9mc5wgjld6se77t.png 
http://imgshack.info/images/rvsejlcsscbwngjyupg3.png 
http://imgshack.info/images/fhvopq0zq26307h99h7b.jpg 
http://bit-byte.forums-free.com/